<svg xmlns="http://www.w3.org/2000/svg" xmlns:xlink="http://www.w3.org/1999/xlink" aria-hidden="true" role="img" class="iconify iconify--logos" width="35.93" height="32" preserveAspectRatio="xMidYMid meet" viewBox="0 0 256 228"><path fill="#00D8FF" d="M210.483 73.824a171.49 171.49 0 0 0-8.24-2.597c.465-1.9.893-3.777 1.273-5.621c6.238-30.281 2.16-54.676-11.769-62.708c-13.355-7.7-35.196.329-57.254 19.526a171.23 171.23 0 0 0-6.375 5.848a155.866 155.866 0 0 0-4.241-3.917C100.759 3.829 77.587-4.822 63.673 3.233C50.33 10.957 46.379 33.89 51.995 62.588a170.974 170.974 0 0 0 1.892 8.48c-3.28.932-6.445 1.924-9.474 2.98C17.309 83.498 0 98.307 0 113.668c0 15.865 18.582 31.778 46.812 41.427a145.52 145.52 0 0 0 6.921 2.165a167.467 167.467 0 0 0-2.01 9.138c-5.354 28.2-1.173 50.591 12.134 58.266c13.744 7.926 36.812-.22 59.273-19.855a145.567 145.567 0 0 0 5.342-4.923a168.064 168.064 0 0 0 6.92 6.314c21.758 18.722 43.246 26.282 56.54 18.586c13.731-7.949 18.194-32.003 12.4-61.268a145.016 145.016 0 0 0-1.535-6.842c1.62-.48 3.21-.974 4.76-1.488c29.348-9.723 48.443-25.443 48.443-41.52c0-15.417-17.868-30.326-45.517-39.844Zm-6.365 70.984c-1.455.487-2.94.952-4.46 1.403c-2.11-6.768-4.86-13.89-8.23-21.26a338.375 338.375 0 0 1-8.005 25.06c3.201.79 6.276 1.527 9.202 2.197c-4.996 14.09-11.703 25.978-19.802 34.402c-6.217-5.715-12.148-12.02-17.675-18.772c-1.536-1.744-3.064-3.548-4.582-5.396a323.845 323.845 0 0 0 7.188 27.29c-5.232 1.722-10.506 3.207-15.778 4.433c-10.932-27.85-15.45-59.065-12.67-87.374a171.313 171.313 0 0 0 6.375 5.848a155.866 155.866 0 0 0 4.241 3.917c5.527 6.752 11.458 13.057 17.675 18.772c8.099-8.424 14.806-20.312 19.802-34.402c-2.926-.67-6.001-1.407-9.202-2.197a338.375 338.375 0 0 0 8.005-25.06c3.37 7.37 6.12 14.492 8.23 21.26c1.52-.451 3.005-.916 4.46-1.403c12.51-4.164 22.884-9.312 29.855-14.75c-4.996-5.438-15.37-10.586-27.88-14.75c-1.455-.487-2.94-.952-4.46-1.403c-2.11 6.768-4.86 13.89-8.23 21.26a338.375 338.375 0 0 1-8.005-25.06c-3.201-.79-6.276-1.527-9.202-2.197c4.996-14.09 11.703-25.978 19.802-34.402c6.217 5.715 12.148 12.02 17.675 18.772c1.518 1.848 3.046 3.652 4.582 5.396a323.845 323.845 0 0 0-7.188-27.29c5.272-1.226 10.546-2.711 15.778-4.433c2.78 28.309-1.738 59.524-12.67 87.374c-5.232-1.722-10.506-3.207-15.778-4.433a323.845 323.845 0 0 0 7.188-27.29c-1.536-1.744-3.064-3.548-4.582-5.396c-5.527-6.752-11.458-13.057-17.675-18.772c-8.099 8.424-14.806 20.312-19.802 34.402c2.926.67 6.001 1.407 9.202 2.197a338.375 338.375 0 0 0 8.005 25.06c-3.37-7.37-6.12-14.492-8.23-21.26c-1.52.451-3.005.916-4.46 1.403c-12.51 4.164-22.884 9.312-29.855 14.75c4.996 5.438 15.37 10.586 27.88 14.75Z"></path><path fill="#00D8FF" d="M128 90.808c12.625 0 22.9 10.275 22.9 22.9s-10.275 22.9-22.9 22.9s-22.9-10.275-22.9-22.9s10.275-22.9 22.9-22.9Z"></path></svg>
